<?xml version="1.0" encoding="utf-8"?>
<!-- Generator: Adobe Illustrator 22.0.1, SVG Export Plug-In . SVG Version: 6.00 Build 0)  -->
<svg version="1.1" id="Layer_1" xmlns="http://www.w3.org/2000/svg" xmlns:xlink="http://www.w3.org/1999/xlink" x="0px" y="0px"
	 viewBox="0 0 200 200" style="enable-background:new 0 0 200 200;" xml:space="preserve">
<style type="text/css">
	.st0{fill:#5E5E5E;}
	.st1{fill:#808080;}
	.st2{fill:#FFFFFF;}
</style>
<g>
	<path id="call" class="st2" d="M112.1,120L112.1,120c-4.2-0.4-8.2-1.9-11.6-4.3c-7.9-5-14.2-12.2-18.1-20.7c-0.5-1.2-1-2.4-1.3-3.7
		c-1.4-5.3-0.2-7.2,4.2-10.6c0.4-0.3,0.9-0.5,1.4-0.6c3.5-0.5,5,2,6.4,4.1l0.5,0.7c1.7,2.6,1.7,4.6-0.1,6.8
		c-2.3,2.8-2.4,3.2-0.2,5.8c3.1,3.5,6.4,6.8,9.9,9.9c0.5,0.6,1.3,1,2.1,1.2c0.6,0,1.3-0.5,2.4-1.6c0.9-1,2.1-1.7,3.5-1.8
		c1.1,0.1,2.1,0.4,3,1c0.5,0.3,0.9,0.6,1.4,0.9c2.6,1.8,3.9,3.6,3.9,5.5c0,2.1-1.4,4.1-4.7,6.7c-0.6,0.4-1.3,0.6-2.1,0.7
		C112.5,119.9,112.3,119.9,112.1,120L112.1,120z M87.5,81.3c-0.2,0-0.5,0-0.7,0c-0.3,0-0.6,0.2-0.9,0.3c-4.1,3.1-5,4.4-3.8,9.3
		c0.3,1.2,0.7,2.4,1.2,3.5c3.8,8.3,9.9,15.3,17.7,20.2c3.2,2.3,6.9,3.7,10.9,4.1c0.2,0,0.4-0.1,0.6-0.1c0.5,0,1-0.2,1.5-0.4
		c2.9-2.3,4.3-4.1,4.2-5.7c0-1.4-1.1-2.9-3.4-4.4c-0.5-0.3-0.9-0.6-1.3-0.9c-2.2-1.3-3.2-1.2-5,0.6c-1.3,1.3-2.2,1.9-3.2,1.9
		c-1.1-0.1-2.1-0.7-2.9-1.5c-3.6-3.1-6.9-6.5-10-10c-2.8-3.2-2.5-4.3,0.1-7.4c1.4-1.7,1.4-3.1,0-5.2c-0.2-0.2-0.3-0.5-0.5-0.7
		C90.9,83,89.8,81.3,87.5,81.3L87.5,81.3z"/>
	<g>
		<path class="st2" d="M100,151c-28.1,0-51-22.9-51-51s22.9-51,51-51s51,22.9,51,51S128.1,151,100,151z M100,50
			c-27.6,0-50,22.4-50,50s22.4,50,50,50s50-22.4,50-50S127.6,50,100,50z"/>
	</g>
</g>
</svg>
