<?xml version="1.0" encoding="utf-8"?>
<!-- Generator: Adobe Illustrator 22.0.1, SVG Export Plug-In . SVG Version: 6.00 Build 0)  -->
<svg version="1.1" id="Layer_1" xmlns="http://www.w3.org/2000/svg" xmlns:xlink="http://www.w3.org/1999/xlink" x="0px" y="0px"
	 viewBox="0 0 200 200" style="enable-background:new 0 0 200 200;" xml:space="preserve">
<style type="text/css">
	.st0{fill:#5E5E5E;}
	.st1{fill:#808080;}
	.st2{fill:#FFFFFF;}
</style>
<path id="faq" class="st2" d="M104,63.2c-1.4-2.2-4.4-2.9-6.6-1.5c-0.6,0.4-1.1,0.9-1.5,1.5l-43.2,68.3c-1.5,2.2-0.8,5.3,1.4,6.7
	c0.8,0.5,1.7,0.8,2.6,0.8h86.4c2.7-0.1,4.8-2.3,4.8-5c0-0.9-0.3-1.8-0.8-2.5L104,63.2z M146.3,136c-0.7,1.2-1.9,1.9-3.2,1.9H56.8
	c-2,0-3.7-1.6-3.7-3.6c0-0.7,0.2-1.4,0.6-2L97,63.9c0.7-1,1.8-1.6,3-1.6c1.2,0,2.4,0.6,3,1.6l43.2,68.3
	C146.9,133.3,147,134.8,146.3,136z M99.6,93.8c-2-0.1-4,0.6-5.5,2c-1.5,1.4-2.3,3.4-2.2,5.5h2.4c-0.1-1.4,0.5-2.9,1.5-3.9
	c1.1-1,2.5-1.5,3.9-1.4c1.4-0.1,2.9,0.4,3.9,1.4c1,1.1,1.5,2.6,1.4,4.1c0.1,1.4-0.3,2.8-1,4c-0.9,1.4-2,2.7-3.2,3.9
	c-1,0.8-1.8,1.7-2.3,2.8c-0.3,1.2-0.5,2.5-0.5,3.8h2.4c0-1,0.1-2,0.2-2.9c0.3-0.8,0.8-1.5,1.5-2c1.5-1.3,2.8-2.8,3.8-4.5
	c0.9-1.5,1.3-3.2,1.3-4.9c0.4-4-2.6-7.5-6.5-7.8C100.3,93.8,100,93.8,99.6,93.8z M98,121.1h2.8v3.2H98V121.1z"/>
</svg>
