<svg xmlns="http://www.w3.org/2000/svg" width="35.174" height="53.63" viewBox="0 0 35.174 53.63">
  <g id="Group_4" data-name="Group 4" transform="translate(-832.5 -514.25)">
    <g id="Layer_x0020_1" transform="translate(272 205.75)">
      <path id="Path_7" data-name="Path 7" d="M624.8,609.051a37.507,37.507,0,0,1-7.96-12.865c-3.578-8.885,2.05-10.975,6.312-1.447V570.256a3.55,3.55,0,0,1,7.076,0v11.7a3.041,3.041,0,0,1,5.95,1.166,3.145,3.145,0,0,1,3.618-1.688,3.191,3.191,0,0,1,2.452,3.136c2.854-1.809,5.508.523,5.427,3.859-.2,10.01-1.166,17.327-2.854,20.623" transform="translate(-52.507 -247.628)" fill="none" stroke="#707070" stroke-linecap="round" stroke-width="1" fill-rule="evenodd"/>
      <path id="Path_8" data-name="Path 8" d="M562.126,327.573A13.759,13.759,0,0,1,561,322.186a13.186,13.186,0,1,1,26.372,0,13.759,13.759,0,0,1-1.126,5.387" fill="none" stroke="#707070" stroke-linecap="round" stroke-width="1" fill-rule="evenodd"/>
      <path id="Path_9" data-name="Path 9" d="M678.764,440.3a9.071,9.071,0,0,1-.764-3.578,8.764,8.764,0,0,1,17.528,0,9.071,9.071,0,0,1-.764,3.578" transform="translate(-112.296 -114.216)" fill="none" stroke="#707070" stroke-linecap="round" stroke-width="1" fill-rule="evenodd"/>
    </g>
  </g>
</svg>
