<svg xmlns="http://www.w3.org/2000/svg" width="49.778" height="56.715" viewBox="0 0 49.778 56.715">
  <g id="Group_2" data-name="Group 2" transform="translate(-919.698 -510.946)">
    <path id="Path_4" data-name="Path 4" d="M920.2,566.172V532.685l16.453-3.678,16.259,4.839,16.066-4.839V562.3l-16.066,4.839L936.651,562.3Z" fill="none" stroke="#707070" stroke-width="1"/>
    <path id="Path_5" data-name="Path 5" d="M937,529.008v33.68" fill="none" stroke="#707070" stroke-width="1"/>
    <path id="Path_6" data-name="Path 6" d="M952.33,533.459v33.874" fill="none" stroke="#707070" stroke-width="1"/>
    <path id="Icon_material-location-on" data-name="Icon material-location-on" d="M17.735,3C12.077,3,7.5,7.312,7.5,12.644c0,7.233,10.235,17.91,10.235,17.91s10.235-10.677,10.235-17.91C27.971,7.312,23.394,3,17.735,3Zm0,13.088a3.556,3.556,0,0,1-3.655-3.444A3.556,3.556,0,0,1,17.735,9.2a3.556,3.556,0,0,1,3.655,3.444A3.556,3.556,0,0,1,17.735,16.088Z" transform="translate(928.5 508.446)" fill="#212121" stroke="#707070" stroke-width="1"/>
  </g>
</svg>
