<?xml version="1.0" encoding="utf-8"?>
<!-- Generator: Adobe Illustrator 22.0.1, SVG Export Plug-In . SVG Version: 6.00 Build 0)  -->
<svg version="1.1" id="Layer_1" xmlns="http://www.w3.org/2000/svg" xmlns:xlink="http://www.w3.org/1999/xlink" x="0px" y="0px"
	 viewBox="0 0 200 200" style="enable-background:new 0 0 200 200;" xml:space="preserve">
<style type="text/css">
	.st0{fill:#5E5E5E;}
	.st1{fill:#808080;}
	.st2{fill:#FFFFFF;}
</style>
<path id="mail" class="st2" d="M62.3,72.4c-4,0-7.3,3.3-7.3,7.3v43.9c0,4,3.3,7.3,7.3,7.3h75.4c4,0,7.3-3.3,7.3-7.3V79.7
	c0-4-3.3-7.3-7.3-7.3H62.3z M62.3,74.5h75.4c2.9,0,5.2,2.3,5.2,5.2c0,0,0,0,0,0.1v43.9c0,2.9-2.3,5.2-5.2,5.2c0,0-0.1,0-0.1,0H62.3
	c-2.9,0-5.2-2.3-5.2-5.2c0,0,0,0,0-0.1V79.7C57.1,76.8,59.4,74.5,62.3,74.5C62.3,74.5,62.3,74.5,62.3,74.5L62.3,74.5z M132.6,84.8
	c-0.2,0-0.4,0.2-0.6,0.3l-28.3,25.4c-2.1,1.9-5.4,1.9-7.5,0L68,85.2c-0.2-0.2-0.5-0.3-0.8-0.3c-0.6,0-1,0.5-1,1.1
	c0,0.3,0.1,0.6,0.4,0.7l16.8,15.2l-16.8,14.6c-0.4,0.4-0.5,1-0.1,1.5c0.4,0.4,1,0.5,1.5,0.1c0,0,0,0,0,0l16.9-14.6
	c0.1,0,0.1-0.1,0.2-0.1l9.8,8.9c2.9,2.6,7.4,2.6,10.3,0l9.9-8.9c0,0.1,0.1,0.1,0.2,0.2l16.9,14.6c0.4,0.4,1.1,0.3,1.5-0.1
	c0.4-0.4,0.3-1.1-0.1-1.5l0,0c0,0,0,0,0,0l-16.8-14.6l16.9-15.2c0.5-0.3,0.6-1,0.2-1.5C133.4,84.9,133,84.8,132.6,84.8L132.6,84.8z"
	/>
</svg>
