<?xml version="1.0" encoding="utf-8"?>
<!-- Generator: Adobe Illustrator 22.0.1, SVG Export Plug-In . SVG Version: 6.00 Build 0)  -->
<svg version="1.1" id="Layer_1" xmlns="http://www.w3.org/2000/svg" xmlns:xlink="http://www.w3.org/1999/xlink" x="0px" y="0px"
	 viewBox="0 0 200 200" style="enable-background:new 0 0 200 200;" xml:space="preserve">
<style type="text/css">
	.st0{fill:#5E5E5E;}
	.st1{fill:#808080;}
	.st2{fill:#FFFFFF;}
</style>
<g>
	<path id="RSA" class="st2" d="M139,150.8c-1.2,0-2.4-0.4-3.3-1.2L102.9,121c-2.1-1.8-2.3-4.9-0.5-6.9c0,0,0,0,0.1-0.1l5.6-6.3
		c1.8-2.1,5-2.2,7.1-0.4l32.8,28.6c2.1,1.8,2.3,4.9,0.5,6.9c0,0,0,0-0.1,0.1l-5.6,6.3c-0.9,1-2.1,1.6-3.4,1.7
		C139.2,150.8,139.1,150.8,139,150.8z M111.8,108.2c-0.8,0-1.6,0.3-2.1,0.9l-5.6,6.3c-1,1.1-0.9,2.9,0.2,3.9c0,0,0,0,0,0l32.8,28.6
		c1.2,1,2.9,0.9,4-0.2l5.6-6.3c1-1.1,0.9-2.9-0.2-3.9c0,0,0,0,0,0l-32.8-28.6C113.1,108.4,112.4,108.2,111.8,108.2z M89.7,97.9
		c-0.3,0-0.5-0.1-0.7-0.3L60.1,72.5c-0.4-0.4-0.5-1.1-0.1-1.5c0,0,0,0,0,0c0.4-0.5,1.1-0.5,1.6-0.1L90.4,96c0.5,0.4,0.5,1.1,0.1,1.5
		C90.3,97.8,90,97.9,89.7,97.9L89.7,97.9z M57.3,76.1L57.3,76.1c-0.9,0-1.6-0.4-2-1l-5.8-7.5c-0.8-1-0.7-2.3,0.1-3.2l3.4-3.8
		c0.8-0.9,2.1-1.1,3.2-0.5l8.4,4.6c0.7,0.4,1.1,1,1.3,1.8c0.1,0.8-0.1,1.5-0.6,2.1l-5.9,6.7C58.7,75.8,58,76.1,57.3,76.1L57.3,76.1z
		 M54.8,61.9c-0.1,0-0.2,0-0.3,0.1l-3.4,3.8c-0.1,0.1-0.1,0.3,0,0.4l0,0l5.8,7.5c0.1,0.1,0.2,0.1,0.3,0.1c0.1,0,0.2,0,0.3-0.1
		l5.9-6.7c0.1-0.1,0.1-0.2,0.1-0.3c0-0.1-0.1-0.2-0.2-0.2L55,62C54.9,61.9,54.8,61.9,54.8,61.9L54.8,61.9z M135.5,138.3
		c-0.3,0-0.5-0.1-0.7-0.3l-19.2-16.8c-0.5-0.4-0.5-1.1-0.1-1.5c0,0,0,0,0,0c0.4-0.5,1.1-0.5,1.6-0.1l19.2,16.8
		c0.5,0.4,0.5,1.1,0.1,1.5c0,0,0,0,0,0C136.1,138.2,135.8,138.3,135.5,138.3L135.5,138.3z M64.9,147.6c-1.9,0-3.7-0.7-5-2l-0.4-0.4
		c-2.9-2.7-3-7.2-0.3-10.1c0.1-0.1,0.1-0.1,0.2-0.2l58-58l7.2,7.1l-54.2,61.2c-1.3,1.5-3.2,2.3-5.1,2.4
		C65.1,147.6,65,147.6,64.9,147.6L64.9,147.6z M117.3,80l-56.5,56.4c-1,1-1.5,2.3-1.5,3.6c0,1.4,0.6,2.6,1.6,3.6l0.4,0.4
		c2.1,1.9,5.3,1.8,7.2-0.2c0,0,0,0,0,0l52.8-59.6L117.3,80z M131.9,86.5c-10.4,0.1-18.9-8.2-19.1-18.6c-0.1-10.4,8.2-18.9,18.6-19.1
		c0.2,0,0.4,0,0.7,0c0.9,0,1.6,0.7,1.6,1.6c0,0.4-0.2,0.8-0.4,1.1c-5.6,5.8-6.5,13-2.2,17c2.1,1.9,5,2.7,7.7,2.2
		c3.5-0.7,6.8-2.5,9.2-5.2l0.1-0.1c0.4-0.4,1.1-0.6,1.7-0.4c0.6,0.2,1,0.7,1,1.4l0,0c0.6,10.4-7.3,19.4-17.8,20
		C132.7,86.5,132.3,86.5,131.9,86.5L131.9,86.5L131.9,86.5z M130.6,51.1c-4.5,0.3-8.7,2.4-11.6,5.8c-6,7-5.1,17.5,1.9,23.5
		c3.1,2.6,7,4,11,4l0,0c9.1,0,16.5-7.2,16.7-16.3c-2.6,2.6-6,4.3-9.6,4.9c-3.5,0.6-7-0.4-9.6-2.8C124.5,65.5,125,57.6,130.6,51.1
		L130.6,51.1z"/>
</g>
</svg>
